<mxfile host="app.diagrams.net" agent="Mozilla/5.0 (Windows NT 10.0; Win64; x64; rv:135.0) Gecko/20100101 Firefox/135.0" version="25.0.3">
  <diagram name="第 1 页" id="JxhBDwonmjt2PF4CiTm6">
    <mxGraphModel dx="478" dy="-144" grid="0" gridSize="10" guides="1" tooltips="1" connect="1" arrows="1" fold="1" page="0" pageScale="1" pageWidth="827" pageHeight="1169" math="0" shadow="0">
      <root>
        <mxCell id="0" />
        <mxCell id="1" parent="0" />
        <mxCell id="Ac2v2TOW07Db29iLxhTf-79" value="" style="rounded=0;whiteSpace=wrap;html=1;" vertex="1" parent="1">
          <mxGeometry x="83" y="685" width="15" height="14" as="geometry" />
        </mxCell>
        <mxCell id="Ac2v2TOW07Db29iLxhTf-80" value="" style="rounded=0;whiteSpace=wrap;html=1;" vertex="1" parent="1">
          <mxGeometry x="98" y="685" width="15" height="14" as="geometry" />
        </mxCell>
        <mxCell id="Ac2v2TOW07Db29iLxhTf-81" value="" style="rounded=0;whiteSpace=wrap;html=1;" vertex="1" parent="1">
          <mxGeometry x="188" y="685" width="15" height="14" as="geometry" />
        </mxCell>
        <mxCell id="Ac2v2TOW07Db29iLxhTf-82" value="" style="rounded=0;whiteSpace=wrap;html=1;" vertex="1" parent="1">
          <mxGeometry x="203" y="685" width="15" height="14" as="geometry" />
        </mxCell>
        <mxCell id="Ac2v2TOW07Db29iLxhTf-83" value="" style="rounded=0;whiteSpace=wrap;html=1;" vertex="1" parent="1">
          <mxGeometry x="173" y="685" width="15" height="14" as="geometry" />
        </mxCell>
        <mxCell id="Ac2v2TOW07Db29iLxhTf-84" value="" style="rounded=0;whiteSpace=wrap;html=1;" vertex="1" parent="1">
          <mxGeometry x="143" y="685" width="15" height="14" as="geometry" />
        </mxCell>
        <mxCell id="Ac2v2TOW07Db29iLxhTf-85" value="" style="rounded=0;whiteSpace=wrap;html=1;" vertex="1" parent="1">
          <mxGeometry x="158" y="685" width="15" height="14" as="geometry" />
        </mxCell>
        <mxCell id="Ac2v2TOW07Db29iLxhTf-86" value="" style="rounded=0;whiteSpace=wrap;html=1;" vertex="1" parent="1">
          <mxGeometry x="128" y="685" width="15" height="14" as="geometry" />
        </mxCell>
        <mxCell id="Ac2v2TOW07Db29iLxhTf-87" value="" style="rounded=0;whiteSpace=wrap;html=1;" vertex="1" parent="1">
          <mxGeometry x="113" y="685" width="15" height="14" as="geometry" />
        </mxCell>
        <mxCell id="Ac2v2TOW07Db29iLxhTf-89" value="" style="rounded=0;whiteSpace=wrap;html=1;" vertex="1" parent="1">
          <mxGeometry x="218" y="685" width="15" height="14" as="geometry" />
        </mxCell>
        <mxCell id="Ac2v2TOW07Db29iLxhTf-92" value="" style="rounded=0;whiteSpace=wrap;html=1;" vertex="1" parent="1">
          <mxGeometry x="83" y="671" width="15" height="14" as="geometry" />
        </mxCell>
        <mxCell id="Ac2v2TOW07Db29iLxhTf-93" value="" style="rounded=0;whiteSpace=wrap;html=1;" vertex="1" parent="1">
          <mxGeometry x="98" y="671" width="15" height="14" as="geometry" />
        </mxCell>
        <mxCell id="Ac2v2TOW07Db29iLxhTf-94" value="" style="rounded=0;whiteSpace=wrap;html=1;" vertex="1" parent="1">
          <mxGeometry x="188" y="671" width="15" height="14" as="geometry" />
        </mxCell>
        <mxCell id="Ac2v2TOW07Db29iLxhTf-95" value="" style="rounded=0;whiteSpace=wrap;html=1;" vertex="1" parent="1">
          <mxGeometry x="203" y="671" width="15" height="14" as="geometry" />
        </mxCell>
        <mxCell id="Ac2v2TOW07Db29iLxhTf-96" value="" style="rounded=0;whiteSpace=wrap;html=1;" vertex="1" parent="1">
          <mxGeometry x="173" y="671" width="15" height="14" as="geometry" />
        </mxCell>
        <mxCell id="Ac2v2TOW07Db29iLxhTf-97" value="" style="rounded=0;whiteSpace=wrap;html=1;" vertex="1" parent="1">
          <mxGeometry x="143" y="671" width="15" height="14" as="geometry" />
        </mxCell>
        <mxCell id="Ac2v2TOW07Db29iLxhTf-98" value="" style="rounded=0;whiteSpace=wrap;html=1;" vertex="1" parent="1">
          <mxGeometry x="158" y="671" width="15" height="14" as="geometry" />
        </mxCell>
        <mxCell id="Ac2v2TOW07Db29iLxhTf-99" value="" style="rounded=0;whiteSpace=wrap;html=1;" vertex="1" parent="1">
          <mxGeometry x="128" y="671" width="15" height="14" as="geometry" />
        </mxCell>
        <mxCell id="Ac2v2TOW07Db29iLxhTf-100" value="" style="rounded=0;whiteSpace=wrap;html=1;" vertex="1" parent="1">
          <mxGeometry x="113" y="671" width="15" height="14" as="geometry" />
        </mxCell>
        <mxCell id="Ac2v2TOW07Db29iLxhTf-101" value="" style="rounded=0;whiteSpace=wrap;html=1;" vertex="1" parent="1">
          <mxGeometry x="218" y="671" width="15" height="14" as="geometry" />
        </mxCell>
        <mxCell id="Ac2v2TOW07Db29iLxhTf-102" value="" style="rounded=0;whiteSpace=wrap;html=1;" vertex="1" parent="1">
          <mxGeometry x="83" y="657" width="15" height="14" as="geometry" />
        </mxCell>
        <mxCell id="Ac2v2TOW07Db29iLxhTf-103" value="" style="rounded=0;whiteSpace=wrap;html=1;" vertex="1" parent="1">
          <mxGeometry x="98" y="657" width="15" height="14" as="geometry" />
        </mxCell>
        <mxCell id="Ac2v2TOW07Db29iLxhTf-104" value="" style="rounded=0;whiteSpace=wrap;html=1;" vertex="1" parent="1">
          <mxGeometry x="188" y="657" width="15" height="14" as="geometry" />
        </mxCell>
        <mxCell id="Ac2v2TOW07Db29iLxhTf-105" value="" style="rounded=0;whiteSpace=wrap;html=1;" vertex="1" parent="1">
          <mxGeometry x="203" y="657" width="15" height="14" as="geometry" />
        </mxCell>
        <mxCell id="Ac2v2TOW07Db29iLxhTf-106" value="" style="rounded=0;whiteSpace=wrap;html=1;" vertex="1" parent="1">
          <mxGeometry x="173" y="657" width="15" height="14" as="geometry" />
        </mxCell>
        <mxCell id="Ac2v2TOW07Db29iLxhTf-107" value="" style="rounded=0;whiteSpace=wrap;html=1;" vertex="1" parent="1">
          <mxGeometry x="143" y="657" width="15" height="14" as="geometry" />
        </mxCell>
        <mxCell id="Ac2v2TOW07Db29iLxhTf-108" value="" style="rounded=0;whiteSpace=wrap;html=1;" vertex="1" parent="1">
          <mxGeometry x="158" y="657" width="15" height="14" as="geometry" />
        </mxCell>
        <mxCell id="Ac2v2TOW07Db29iLxhTf-109" value="" style="rounded=0;whiteSpace=wrap;html=1;" vertex="1" parent="1">
          <mxGeometry x="128" y="657" width="15" height="14" as="geometry" />
        </mxCell>
        <mxCell id="Ac2v2TOW07Db29iLxhTf-110" value="" style="rounded=0;whiteSpace=wrap;html=1;" vertex="1" parent="1">
          <mxGeometry x="113" y="657" width="15" height="14" as="geometry" />
        </mxCell>
        <mxCell id="Ac2v2TOW07Db29iLxhTf-111" value="" style="rounded=0;whiteSpace=wrap;html=1;" vertex="1" parent="1">
          <mxGeometry x="218" y="657" width="15" height="14" as="geometry" />
        </mxCell>
        <mxCell id="Ac2v2TOW07Db29iLxhTf-112" value="" style="rounded=0;whiteSpace=wrap;html=1;" vertex="1" parent="1">
          <mxGeometry x="83" y="643" width="15" height="14" as="geometry" />
        </mxCell>
        <mxCell id="Ac2v2TOW07Db29iLxhTf-113" value="" style="rounded=0;whiteSpace=wrap;html=1;" vertex="1" parent="1">
          <mxGeometry x="98" y="643" width="15" height="14" as="geometry" />
        </mxCell>
        <mxCell id="Ac2v2TOW07Db29iLxhTf-114" value="" style="rounded=0;whiteSpace=wrap;html=1;" vertex="1" parent="1">
          <mxGeometry x="188" y="643" width="15" height="14" as="geometry" />
        </mxCell>
        <mxCell id="Ac2v2TOW07Db29iLxhTf-115" value="" style="rounded=0;whiteSpace=wrap;html=1;" vertex="1" parent="1">
          <mxGeometry x="203" y="643" width="15" height="14" as="geometry" />
        </mxCell>
        <mxCell id="Ac2v2TOW07Db29iLxhTf-116" value="" style="rounded=0;whiteSpace=wrap;html=1;" vertex="1" parent="1">
          <mxGeometry x="173" y="643" width="15" height="14" as="geometry" />
        </mxCell>
        <mxCell id="Ac2v2TOW07Db29iLxhTf-117" value="" style="rounded=0;whiteSpace=wrap;html=1;" vertex="1" parent="1">
          <mxGeometry x="143" y="643" width="15" height="14" as="geometry" />
        </mxCell>
        <mxCell id="Ac2v2TOW07Db29iLxhTf-118" value="" style="rounded=0;whiteSpace=wrap;html=1;" vertex="1" parent="1">
          <mxGeometry x="158" y="643" width="15" height="14" as="geometry" />
        </mxCell>
        <mxCell id="Ac2v2TOW07Db29iLxhTf-119" value="" style="rounded=0;whiteSpace=wrap;html=1;" vertex="1" parent="1">
          <mxGeometry x="128" y="643" width="15" height="14" as="geometry" />
        </mxCell>
        <mxCell id="Ac2v2TOW07Db29iLxhTf-120" value="" style="rounded=0;whiteSpace=wrap;html=1;" vertex="1" parent="1">
          <mxGeometry x="113" y="643" width="15" height="14" as="geometry" />
        </mxCell>
        <mxCell id="Ac2v2TOW07Db29iLxhTf-121" value="" style="rounded=0;whiteSpace=wrap;html=1;" vertex="1" parent="1">
          <mxGeometry x="218" y="643" width="15" height="14" as="geometry" />
        </mxCell>
        <mxCell id="Ac2v2TOW07Db29iLxhTf-122" value="" style="rounded=0;whiteSpace=wrap;html=1;" vertex="1" parent="1">
          <mxGeometry x="83" y="629" width="15" height="14" as="geometry" />
        </mxCell>
        <mxCell id="Ac2v2TOW07Db29iLxhTf-123" value="" style="rounded=0;whiteSpace=wrap;html=1;" vertex="1" parent="1">
          <mxGeometry x="98" y="629" width="15" height="14" as="geometry" />
        </mxCell>
        <mxCell id="Ac2v2TOW07Db29iLxhTf-124" value="" style="rounded=0;whiteSpace=wrap;html=1;" vertex="1" parent="1">
          <mxGeometry x="188" y="629" width="15" height="14" as="geometry" />
        </mxCell>
        <mxCell id="Ac2v2TOW07Db29iLxhTf-125" value="" style="rounded=0;whiteSpace=wrap;html=1;" vertex="1" parent="1">
          <mxGeometry x="203" y="629" width="15" height="14" as="geometry" />
        </mxCell>
        <mxCell id="Ac2v2TOW07Db29iLxhTf-126" value="" style="rounded=0;whiteSpace=wrap;html=1;" vertex="1" parent="1">
          <mxGeometry x="173" y="629" width="15" height="14" as="geometry" />
        </mxCell>
        <mxCell id="Ac2v2TOW07Db29iLxhTf-127" value="" style="rounded=0;whiteSpace=wrap;html=1;" vertex="1" parent="1">
          <mxGeometry x="143" y="629" width="15" height="14" as="geometry" />
        </mxCell>
        <mxCell id="Ac2v2TOW07Db29iLxhTf-128" value="" style="rounded=0;whiteSpace=wrap;html=1;" vertex="1" parent="1">
          <mxGeometry x="158" y="629" width="15" height="14" as="geometry" />
        </mxCell>
        <mxCell id="Ac2v2TOW07Db29iLxhTf-129" value="" style="rounded=0;whiteSpace=wrap;html=1;" vertex="1" parent="1">
          <mxGeometry x="128" y="629" width="15" height="14" as="geometry" />
        </mxCell>
        <mxCell id="Ac2v2TOW07Db29iLxhTf-130" value="" style="rounded=0;whiteSpace=wrap;html=1;" vertex="1" parent="1">
          <mxGeometry x="113" y="629" width="15" height="14" as="geometry" />
        </mxCell>
        <mxCell id="Ac2v2TOW07Db29iLxhTf-131" value="" style="rounded=0;whiteSpace=wrap;html=1;" vertex="1" parent="1">
          <mxGeometry x="218" y="629" width="15" height="14" as="geometry" />
        </mxCell>
        <mxCell id="Ac2v2TOW07Db29iLxhTf-132" value="" style="rounded=0;whiteSpace=wrap;html=1;" vertex="1" parent="1">
          <mxGeometry x="83" y="615" width="15" height="14" as="geometry" />
        </mxCell>
        <mxCell id="Ac2v2TOW07Db29iLxhTf-133" value="" style="rounded=0;whiteSpace=wrap;html=1;" vertex="1" parent="1">
          <mxGeometry x="98" y="615" width="15" height="14" as="geometry" />
        </mxCell>
        <mxCell id="Ac2v2TOW07Db29iLxhTf-134" value="" style="rounded=0;whiteSpace=wrap;html=1;" vertex="1" parent="1">
          <mxGeometry x="188" y="615" width="15" height="14" as="geometry" />
        </mxCell>
        <mxCell id="Ac2v2TOW07Db29iLxhTf-135" value="" style="rounded=0;whiteSpace=wrap;html=1;" vertex="1" parent="1">
          <mxGeometry x="203" y="615" width="15" height="14" as="geometry" />
        </mxCell>
        <mxCell id="Ac2v2TOW07Db29iLxhTf-136" value="" style="rounded=0;whiteSpace=wrap;html=1;" vertex="1" parent="1">
          <mxGeometry x="173" y="615" width="15" height="14" as="geometry" />
        </mxCell>
        <mxCell id="Ac2v2TOW07Db29iLxhTf-137" value="" style="rounded=0;whiteSpace=wrap;html=1;" vertex="1" parent="1">
          <mxGeometry x="143" y="615" width="15" height="14" as="geometry" />
        </mxCell>
        <mxCell id="Ac2v2TOW07Db29iLxhTf-138" value="" style="rounded=0;whiteSpace=wrap;html=1;" vertex="1" parent="1">
          <mxGeometry x="158" y="615" width="15" height="14" as="geometry" />
        </mxCell>
        <mxCell id="Ac2v2TOW07Db29iLxhTf-139" value="" style="rounded=0;whiteSpace=wrap;html=1;" vertex="1" parent="1">
          <mxGeometry x="128" y="615" width="15" height="14" as="geometry" />
        </mxCell>
        <mxCell id="Ac2v2TOW07Db29iLxhTf-140" value="" style="rounded=0;whiteSpace=wrap;html=1;" vertex="1" parent="1">
          <mxGeometry x="113" y="615" width="15" height="14" as="geometry" />
        </mxCell>
        <mxCell id="Ac2v2TOW07Db29iLxhTf-141" value="" style="rounded=0;whiteSpace=wrap;html=1;" vertex="1" parent="1">
          <mxGeometry x="218" y="615" width="15" height="14" as="geometry" />
        </mxCell>
        <mxCell id="Ac2v2TOW07Db29iLxhTf-142" value="" style="rounded=0;whiteSpace=wrap;html=1;" vertex="1" parent="1">
          <mxGeometry x="83" y="601" width="15" height="14" as="geometry" />
        </mxCell>
        <mxCell id="Ac2v2TOW07Db29iLxhTf-143" value="" style="rounded=0;whiteSpace=wrap;html=1;" vertex="1" parent="1">
          <mxGeometry x="98" y="601" width="15" height="14" as="geometry" />
        </mxCell>
        <mxCell id="Ac2v2TOW07Db29iLxhTf-144" value="" style="rounded=0;whiteSpace=wrap;html=1;" vertex="1" parent="1">
          <mxGeometry x="188" y="601" width="15" height="14" as="geometry" />
        </mxCell>
        <mxCell id="Ac2v2TOW07Db29iLxhTf-145" value="" style="rounded=0;whiteSpace=wrap;html=1;" vertex="1" parent="1">
          <mxGeometry x="203" y="601" width="15" height="14" as="geometry" />
        </mxCell>
        <mxCell id="Ac2v2TOW07Db29iLxhTf-146" value="" style="rounded=0;whiteSpace=wrap;html=1;" vertex="1" parent="1">
          <mxGeometry x="173" y="601" width="15" height="14" as="geometry" />
        </mxCell>
        <mxCell id="Ac2v2TOW07Db29iLxhTf-147" value="" style="rounded=0;whiteSpace=wrap;html=1;" vertex="1" parent="1">
          <mxGeometry x="143" y="601" width="15" height="14" as="geometry" />
        </mxCell>
        <mxCell id="Ac2v2TOW07Db29iLxhTf-148" value="" style="rounded=0;whiteSpace=wrap;html=1;" vertex="1" parent="1">
          <mxGeometry x="158" y="601" width="15" height="14" as="geometry" />
        </mxCell>
        <mxCell id="Ac2v2TOW07Db29iLxhTf-149" value="" style="rounded=0;whiteSpace=wrap;html=1;" vertex="1" parent="1">
          <mxGeometry x="128" y="601" width="15" height="14" as="geometry" />
        </mxCell>
        <mxCell id="Ac2v2TOW07Db29iLxhTf-150" value="" style="rounded=0;whiteSpace=wrap;html=1;" vertex="1" parent="1">
          <mxGeometry x="113" y="601" width="15" height="14" as="geometry" />
        </mxCell>
        <mxCell id="Ac2v2TOW07Db29iLxhTf-151" value="" style="rounded=0;whiteSpace=wrap;html=1;" vertex="1" parent="1">
          <mxGeometry x="218" y="601" width="15" height="14" as="geometry" />
        </mxCell>
        <mxCell id="Ac2v2TOW07Db29iLxhTf-152" value="" style="rounded=0;whiteSpace=wrap;html=1;" vertex="1" parent="1">
          <mxGeometry x="83" y="587" width="15" height="14" as="geometry" />
        </mxCell>
        <mxCell id="Ac2v2TOW07Db29iLxhTf-153" value="" style="rounded=0;whiteSpace=wrap;html=1;" vertex="1" parent="1">
          <mxGeometry x="98" y="587" width="15" height="14" as="geometry" />
        </mxCell>
        <mxCell id="Ac2v2TOW07Db29iLxhTf-154" value="" style="rounded=0;whiteSpace=wrap;html=1;" vertex="1" parent="1">
          <mxGeometry x="188" y="587" width="15" height="14" as="geometry" />
        </mxCell>
        <mxCell id="Ac2v2TOW07Db29iLxhTf-155" value="" style="rounded=0;whiteSpace=wrap;html=1;" vertex="1" parent="1">
          <mxGeometry x="203" y="587" width="15" height="14" as="geometry" />
        </mxCell>
        <mxCell id="Ac2v2TOW07Db29iLxhTf-156" value="" style="rounded=0;whiteSpace=wrap;html=1;" vertex="1" parent="1">
          <mxGeometry x="173" y="587" width="15" height="14" as="geometry" />
        </mxCell>
        <mxCell id="Ac2v2TOW07Db29iLxhTf-157" value="" style="rounded=0;whiteSpace=wrap;html=1;" vertex="1" parent="1">
          <mxGeometry x="143" y="587" width="15" height="14" as="geometry" />
        </mxCell>
        <mxCell id="Ac2v2TOW07Db29iLxhTf-158" value="" style="rounded=0;whiteSpace=wrap;html=1;" vertex="1" parent="1">
          <mxGeometry x="158" y="587" width="15" height="14" as="geometry" />
        </mxCell>
        <mxCell id="Ac2v2TOW07Db29iLxhTf-159" value="" style="rounded=0;whiteSpace=wrap;html=1;" vertex="1" parent="1">
          <mxGeometry x="128" y="587" width="15" height="14" as="geometry" />
        </mxCell>
        <mxCell id="Ac2v2TOW07Db29iLxhTf-160" value="" style="rounded=0;whiteSpace=wrap;html=1;" vertex="1" parent="1">
          <mxGeometry x="113" y="587" width="15" height="14" as="geometry" />
        </mxCell>
        <mxCell id="Ac2v2TOW07Db29iLxhTf-161" value="" style="rounded=0;whiteSpace=wrap;html=1;" vertex="1" parent="1">
          <mxGeometry x="218" y="587" width="15" height="14" as="geometry" />
        </mxCell>
        <mxCell id="Ac2v2TOW07Db29iLxhTf-162" value="" style="rounded=0;whiteSpace=wrap;html=1;" vertex="1" parent="1">
          <mxGeometry x="83" y="573" width="15" height="14" as="geometry" />
        </mxCell>
        <mxCell id="Ac2v2TOW07Db29iLxhTf-163" value="" style="rounded=0;whiteSpace=wrap;html=1;" vertex="1" parent="1">
          <mxGeometry x="98" y="573" width="15" height="14" as="geometry" />
        </mxCell>
        <mxCell id="Ac2v2TOW07Db29iLxhTf-164" value="" style="rounded=0;whiteSpace=wrap;html=1;" vertex="1" parent="1">
          <mxGeometry x="188" y="573" width="15" height="14" as="geometry" />
        </mxCell>
        <mxCell id="Ac2v2TOW07Db29iLxhTf-165" value="" style="rounded=0;whiteSpace=wrap;html=1;" vertex="1" parent="1">
          <mxGeometry x="203" y="573" width="15" height="14" as="geometry" />
        </mxCell>
        <mxCell id="Ac2v2TOW07Db29iLxhTf-166" value="" style="rounded=0;whiteSpace=wrap;html=1;" vertex="1" parent="1">
          <mxGeometry x="173" y="573" width="15" height="14" as="geometry" />
        </mxCell>
        <mxCell id="Ac2v2TOW07Db29iLxhTf-167" value="" style="rounded=0;whiteSpace=wrap;html=1;" vertex="1" parent="1">
          <mxGeometry x="143" y="573" width="15" height="14" as="geometry" />
        </mxCell>
        <mxCell id="Ac2v2TOW07Db29iLxhTf-168" value="" style="rounded=0;whiteSpace=wrap;html=1;" vertex="1" parent="1">
          <mxGeometry x="158" y="573" width="15" height="14" as="geometry" />
        </mxCell>
        <mxCell id="Ac2v2TOW07Db29iLxhTf-169" value="" style="rounded=0;whiteSpace=wrap;html=1;" vertex="1" parent="1">
          <mxGeometry x="128" y="573" width="15" height="14" as="geometry" />
        </mxCell>
        <mxCell id="Ac2v2TOW07Db29iLxhTf-170" value="" style="rounded=0;whiteSpace=wrap;html=1;" vertex="1" parent="1">
          <mxGeometry x="113" y="573" width="15" height="14" as="geometry" />
        </mxCell>
        <mxCell id="Ac2v2TOW07Db29iLxhTf-171" value="" style="rounded=0;whiteSpace=wrap;html=1;" vertex="1" parent="1">
          <mxGeometry x="218" y="573" width="15" height="14" as="geometry" />
        </mxCell>
        <mxCell id="Ac2v2TOW07Db29iLxhTf-172" value="" style="rounded=0;whiteSpace=wrap;html=1;" vertex="1" parent="1">
          <mxGeometry x="83" y="559" width="15" height="14" as="geometry" />
        </mxCell>
        <mxCell id="Ac2v2TOW07Db29iLxhTf-173" value="" style="rounded=0;whiteSpace=wrap;html=1;" vertex="1" parent="1">
          <mxGeometry x="98" y="559" width="15" height="14" as="geometry" />
        </mxCell>
        <mxCell id="Ac2v2TOW07Db29iLxhTf-174" value="" style="rounded=0;whiteSpace=wrap;html=1;" vertex="1" parent="1">
          <mxGeometry x="188" y="559" width="15" height="14" as="geometry" />
        </mxCell>
        <mxCell id="Ac2v2TOW07Db29iLxhTf-175" value="" style="rounded=0;whiteSpace=wrap;html=1;" vertex="1" parent="1">
          <mxGeometry x="203" y="559" width="15" height="14" as="geometry" />
        </mxCell>
        <mxCell id="Ac2v2TOW07Db29iLxhTf-176" value="" style="rounded=0;whiteSpace=wrap;html=1;" vertex="1" parent="1">
          <mxGeometry x="173" y="559" width="15" height="14" as="geometry" />
        </mxCell>
        <mxCell id="Ac2v2TOW07Db29iLxhTf-177" value="" style="rounded=0;whiteSpace=wrap;html=1;" vertex="1" parent="1">
          <mxGeometry x="143" y="559" width="15" height="14" as="geometry" />
        </mxCell>
        <mxCell id="Ac2v2TOW07Db29iLxhTf-178" value="" style="rounded=0;whiteSpace=wrap;html=1;" vertex="1" parent="1">
          <mxGeometry x="158" y="559" width="15" height="14" as="geometry" />
        </mxCell>
        <mxCell id="Ac2v2TOW07Db29iLxhTf-179" value="" style="rounded=0;whiteSpace=wrap;html=1;fillColor=#f8cecc;strokeColor=#b85450;" vertex="1" parent="1">
          <mxGeometry x="128" y="559" width="15" height="14" as="geometry" />
        </mxCell>
        <mxCell id="Ac2v2TOW07Db29iLxhTf-180" value="" style="rounded=0;whiteSpace=wrap;html=1;" vertex="1" parent="1">
          <mxGeometry x="113" y="559" width="15" height="14" as="geometry" />
        </mxCell>
        <mxCell id="Ac2v2TOW07Db29iLxhTf-181" value="" style="rounded=0;whiteSpace=wrap;html=1;" vertex="1" parent="1">
          <mxGeometry x="218" y="559" width="15" height="14" as="geometry" />
        </mxCell>
        <mxCell id="Ac2v2TOW07Db29iLxhTf-204" value="prio=4" style="text;html=1;align=center;verticalAlign=middle;resizable=0;points=[];autosize=1;strokeColor=none;fillColor=none;" vertex="1" parent="1">
          <mxGeometry x="106" y="538" width="52" height="26" as="geometry" />
        </mxCell>
        <mxCell id="Ac2v2TOW07Db29iLxhTf-207" value="prio=4对应的链表" style="text;html=1;align=center;verticalAlign=middle;resizable=0;points=[];autosize=1;strokeColor=none;fillColor=none;" vertex="1" parent="1">
          <mxGeometry x="394" y="603" width="112" height="26" as="geometry" />
        </mxCell>
        <mxCell id="Ac2v2TOW07Db29iLxhTf-222" value="" style="rounded=0;whiteSpace=wrap;html=1;" vertex="1" parent="1">
          <mxGeometry x="334" y="559" width="15" height="14" as="geometry" />
        </mxCell>
        <mxCell id="Ac2v2TOW07Db29iLxhTf-232" style="edgeStyle=orthogonalEdgeStyle;rounded=0;orthogonalLoop=1;jettySize=auto;html=1;entryX=0;entryY=0.5;entryDx=0;entryDy=0;" edge="1" parent="1">
          <mxGeometry relative="1" as="geometry">
            <mxPoint x="319" y="566" as="sourcePoint" />
            <mxPoint x="334" y="566" as="targetPoint" />
            <Array as="points">
              <mxPoint x="326" y="566" />
              <mxPoint x="326" y="566" />
            </Array>
          </mxGeometry>
        </mxCell>
        <mxCell id="Ac2v2TOW07Db29iLxhTf-226" value="" style="rounded=0;whiteSpace=wrap;html=1;" vertex="1" parent="1">
          <mxGeometry x="304" y="559" width="15" height="14" as="geometry" />
        </mxCell>
        <mxCell id="Ac2v2TOW07Db29iLxhTf-231" style="edgeStyle=orthogonalEdgeStyle;rounded=0;orthogonalLoop=1;jettySize=auto;html=1;entryX=0;entryY=0.5;entryDx=0;entryDy=0;" edge="1" parent="1">
          <mxGeometry relative="1" as="geometry">
            <mxPoint x="289" y="566" as="sourcePoint" />
            <mxPoint x="304" y="566" as="targetPoint" />
            <Array as="points">
              <mxPoint x="296" y="566" />
              <mxPoint x="296" y="566" />
            </Array>
          </mxGeometry>
        </mxCell>
        <mxCell id="Ac2v2TOW07Db29iLxhTf-227" value="" style="rounded=0;whiteSpace=wrap;html=1;" vertex="1" parent="1">
          <mxGeometry x="274" y="559" width="15" height="14" as="geometry" />
        </mxCell>
        <mxCell id="Ac2v2TOW07Db29iLxhTf-228" value="" style="rounded=0;whiteSpace=wrap;html=1;" vertex="1" parent="1">
          <mxGeometry x="364" y="559" width="37" height="14" as="geometry" />
        </mxCell>
        <mxCell id="Ac2v2TOW07Db29iLxhTf-234" value="..." style="text;html=1;align=center;verticalAlign=middle;resizable=0;points=[];autosize=1;strokeColor=none;fillColor=none;" vertex="1" parent="1">
          <mxGeometry x="342.5" y="550" width="28" height="26" as="geometry" />
        </mxCell>
        <mxCell id="Ac2v2TOW07Db29iLxhTf-242" value="" style="rounded=0;whiteSpace=wrap;html=1;" vertex="1" parent="1">
          <mxGeometry x="334" y="576" width="15" height="14" as="geometry" />
        </mxCell>
        <mxCell id="Ac2v2TOW07Db29iLxhTf-243" style="edgeStyle=orthogonalEdgeStyle;rounded=0;orthogonalLoop=1;jettySize=auto;html=1;entryX=0;entryY=0.5;entryDx=0;entryDy=0;" edge="1" parent="1" source="Ac2v2TOW07Db29iLxhTf-244" target="Ac2v2TOW07Db29iLxhTf-242">
          <mxGeometry relative="1" as="geometry">
            <Array as="points">
              <mxPoint x="326" y="583" />
              <mxPoint x="326" y="583" />
            </Array>
          </mxGeometry>
        </mxCell>
        <mxCell id="Ac2v2TOW07Db29iLxhTf-244" value="" style="rounded=0;whiteSpace=wrap;html=1;" vertex="1" parent="1">
          <mxGeometry x="304" y="576" width="15" height="14" as="geometry" />
        </mxCell>
        <mxCell id="Ac2v2TOW07Db29iLxhTf-245" style="edgeStyle=orthogonalEdgeStyle;rounded=0;orthogonalLoop=1;jettySize=auto;html=1;entryX=0;entryY=0.5;entryDx=0;entryDy=0;" edge="1" parent="1" source="Ac2v2TOW07Db29iLxhTf-246" target="Ac2v2TOW07Db29iLxhTf-244">
          <mxGeometry relative="1" as="geometry">
            <Array as="points">
              <mxPoint x="296" y="583" />
              <mxPoint x="296" y="583" />
            </Array>
          </mxGeometry>
        </mxCell>
        <mxCell id="Ac2v2TOW07Db29iLxhTf-246" value="" style="rounded=0;whiteSpace=wrap;html=1;" vertex="1" parent="1">
          <mxGeometry x="274" y="576" width="15" height="14" as="geometry" />
        </mxCell>
        <mxCell id="Ac2v2TOW07Db29iLxhTf-247" value="" style="rounded=0;whiteSpace=wrap;html=1;" vertex="1" parent="1">
          <mxGeometry x="364" y="576" width="37" height="14" as="geometry" />
        </mxCell>
        <mxCell id="Ac2v2TOW07Db29iLxhTf-248" value="..." style="text;html=1;align=center;verticalAlign=middle;resizable=0;points=[];autosize=1;strokeColor=none;fillColor=none;" vertex="1" parent="1">
          <mxGeometry x="342.5" y="567" width="28" height="26" as="geometry" />
        </mxCell>
        <mxCell id="Ac2v2TOW07Db29iLxhTf-249" value="" style="rounded=0;whiteSpace=wrap;html=1;" vertex="1" parent="1">
          <mxGeometry x="334" y="592" width="15" height="14" as="geometry" />
        </mxCell>
        <mxCell id="Ac2v2TOW07Db29iLxhTf-250" style="edgeStyle=orthogonalEdgeStyle;rounded=0;orthogonalLoop=1;jettySize=auto;html=1;entryX=0;entryY=0.5;entryDx=0;entryDy=0;" edge="1" parent="1" source="Ac2v2TOW07Db29iLxhTf-251" target="Ac2v2TOW07Db29iLxhTf-249">
          <mxGeometry relative="1" as="geometry">
            <Array as="points">
              <mxPoint x="326" y="599" />
              <mxPoint x="326" y="599" />
            </Array>
          </mxGeometry>
        </mxCell>
        <mxCell id="Ac2v2TOW07Db29iLxhTf-251" value="" style="rounded=0;whiteSpace=wrap;html=1;" vertex="1" parent="1">
          <mxGeometry x="304" y="592" width="15" height="14" as="geometry" />
        </mxCell>
        <mxCell id="Ac2v2TOW07Db29iLxhTf-252" style="edgeStyle=orthogonalEdgeStyle;rounded=0;orthogonalLoop=1;jettySize=auto;html=1;entryX=0;entryY=0.5;entryDx=0;entryDy=0;" edge="1" parent="1" source="Ac2v2TOW07Db29iLxhTf-253" target="Ac2v2TOW07Db29iLxhTf-251">
          <mxGeometry relative="1" as="geometry">
            <Array as="points">
              <mxPoint x="296" y="599" />
              <mxPoint x="296" y="599" />
            </Array>
          </mxGeometry>
        </mxCell>
        <mxCell id="Ac2v2TOW07Db29iLxhTf-253" value="" style="rounded=0;whiteSpace=wrap;html=1;" vertex="1" parent="1">
          <mxGeometry x="274" y="592" width="15" height="14" as="geometry" />
        </mxCell>
        <mxCell id="Ac2v2TOW07Db29iLxhTf-254" value="" style="rounded=0;whiteSpace=wrap;html=1;" vertex="1" parent="1">
          <mxGeometry x="364" y="592" width="37" height="14" as="geometry" />
        </mxCell>
        <mxCell id="Ac2v2TOW07Db29iLxhTf-255" value="..." style="text;html=1;align=center;verticalAlign=middle;resizable=0;points=[];autosize=1;strokeColor=none;fillColor=none;" vertex="1" parent="1">
          <mxGeometry x="342.5" y="583" width="28" height="26" as="geometry" />
        </mxCell>
        <mxCell id="Ac2v2TOW07Db29iLxhTf-256" value="" style="rounded=0;whiteSpace=wrap;html=1;" vertex="1" parent="1">
          <mxGeometry x="334" y="612" width="15" height="14" as="geometry" />
        </mxCell>
        <mxCell id="Ac2v2TOW07Db29iLxhTf-257" style="edgeStyle=orthogonalEdgeStyle;rounded=0;orthogonalLoop=1;jettySize=auto;html=1;entryX=0;entryY=0.5;entryDx=0;entryDy=0;" edge="1" parent="1" source="Ac2v2TOW07Db29iLxhTf-258" target="Ac2v2TOW07Db29iLxhTf-256">
          <mxGeometry relative="1" as="geometry">
            <Array as="points">
              <mxPoint x="326" y="619" />
              <mxPoint x="326" y="619" />
            </Array>
          </mxGeometry>
        </mxCell>
        <mxCell id="Ac2v2TOW07Db29iLxhTf-258" value="" style="rounded=0;whiteSpace=wrap;html=1;fillColor=#d5e8d4;strokeColor=#82b366;" vertex="1" parent="1">
          <mxGeometry x="304" y="612" width="15" height="14" as="geometry" />
        </mxCell>
        <mxCell id="Ac2v2TOW07Db29iLxhTf-259" style="edgeStyle=orthogonalEdgeStyle;rounded=0;orthogonalLoop=1;jettySize=auto;html=1;entryX=0;entryY=0.5;entryDx=0;entryDy=0;" edge="1" parent="1" source="Ac2v2TOW07Db29iLxhTf-260" target="Ac2v2TOW07Db29iLxhTf-258">
          <mxGeometry relative="1" as="geometry">
            <Array as="points">
              <mxPoint x="296" y="619" />
              <mxPoint x="296" y="619" />
            </Array>
          </mxGeometry>
        </mxCell>
        <mxCell id="Ac2v2TOW07Db29iLxhTf-260" value="" style="rounded=0;whiteSpace=wrap;html=1;fillColor=#d5e8d4;strokeColor=#82b366;" vertex="1" parent="1">
          <mxGeometry x="274" y="612" width="15" height="14" as="geometry" />
        </mxCell>
        <mxCell id="Ac2v2TOW07Db29iLxhTf-261" value="" style="rounded=0;whiteSpace=wrap;html=1;" vertex="1" parent="1">
          <mxGeometry x="364" y="612" width="37" height="14" as="geometry" />
        </mxCell>
        <mxCell id="Ac2v2TOW07Db29iLxhTf-262" value="..." style="text;html=1;align=center;verticalAlign=middle;resizable=0;points=[];autosize=1;strokeColor=none;fillColor=none;" vertex="1" parent="1">
          <mxGeometry x="342.5" y="603" width="28" height="26" as="geometry" />
        </mxCell>
        <mxCell id="Ac2v2TOW07Db29iLxhTf-263" value="&lt;div data-page-id=&quot;JrYtdICTWoQQcWxY7VRcigc4nzh&quot; data-lark-html-role=&quot;root&quot; data-docx-has-block-data=&quot;false&quot;&gt;&lt;div style=&quot;white-space:pre;&quot; class=&quot;old-record-id-VdFsdmz9joYPzjx7qBIcoSxWnQh&quot;&gt;queue[MAX_RT_PRIO]&lt;/div&gt;&lt;/div&gt;&lt;span data-lark-record-data=&quot;{&amp;quot;rootId&amp;quot;:&amp;quot;JrYtdICTWoQQcWxY7VRcigc4nzh&amp;quot;,&amp;quot;text&amp;quot;:{&amp;quot;initialAttributedTexts&amp;quot;:{&amp;quot;text&amp;quot;:{&amp;quot;0&amp;quot;:&amp;quot;queue[MAX_RT_PRIO]&amp;quot;},&amp;quot;attribs&amp;quot;:{&amp;quot;0&amp;quot;:&amp;quot;*0+i&amp;quot;}},&amp;quot;apool&amp;quot;:{&amp;quot;numToAttrib&amp;quot;:{&amp;quot;0&amp;quot;:[&amp;quot;author&amp;quot;,&amp;quot;7205516225223376900&amp;quot;]},&amp;quot;nextNum&amp;quot;:1}},&amp;quot;type&amp;quot;:&amp;quot;text&amp;quot;,&amp;quot;referenceRecordMap&amp;quot;:{},&amp;quot;extra&amp;quot;:{&amp;quot;channel&amp;quot;:&amp;quot;saas&amp;quot;,&amp;quot;isEqualBlockSelection&amp;quot;:false,&amp;quot;pasteRandomId&amp;quot;:&amp;quot;f726414e-5bf3-4f79-a40a-1cfa38dbd85c&amp;quot;,&amp;quot;mention_page_title&amp;quot;:{},&amp;quot;external_mention_url&amp;quot;:{}},&amp;quot;isKeepQuoteContainer&amp;quot;:false,&amp;quot;isFromCode&amp;quot;:true,&amp;quot;selection&amp;quot;:[{&amp;quot;id&amp;quot;:259,&amp;quot;type&amp;quot;:&amp;quot;text&amp;quot;,&amp;quot;selection&amp;quot;:{&amp;quot;start&amp;quot;:209,&amp;quot;end&amp;quot;:227},&amp;quot;recordId&amp;quot;:&amp;quot;VdFsdmz9joYPzjx7qBIcoSxWnQh&amp;quot;}],&amp;quot;payloadMap&amp;quot;:{},&amp;quot;isCut&amp;quot;:false}&quot; data-lark-record-format=&quot;docx/text&quot; class=&quot;lark-record-clipboard&quot;&gt;&lt;/span&gt;" style="text;whiteSpace=wrap;html=1;" vertex="1" parent="1">
          <mxGeometry x="276.5" y="524.9" width="130" height="27" as="geometry" />
        </mxCell>
        <mxCell id="Ac2v2TOW07Db29iLxhTf-265" value="bitmap, MAX_RT_PRIO+1" style="text;whiteSpace=wrap;html=1;" vertex="1" parent="1">
          <mxGeometry x="86" y="525" width="144.24" height="26.9" as="geometry" />
        </mxCell>
      </root>
    </mxGraphModel>
  </diagram>
</mxfile>
